<svg xmlns="http://www.w3.org/2000/svg" width="370" height="370" viewBox="0 0 370 370"><style>.a{fill:#FFF;}</style><linearGradient id="background_2_" gradientUnits="userSpaceOnUse" x1="-13" y1="372" x2="-12" y2="372" gradientTransform="matrix(0 -314.0533 -314.0533 0 117159.1953 -3661.0833)"><stop offset="0" stop-color="#A160A4"/><stop offset="1" stop-color="#386CB2"/></linearGradient><rect id="background_1_" width="370" height="370" fill="url(#background_2_)"/><path id="ring_1_" d="M38 185c0-81 66-147 147-147S332 104 332 185c0 81-66 147-147 147S38 266 38 185M28 185c0 87 70 157 157 157 87 0 157-70 157-157S272 28 185 28C98 28 28 98 28 185" class="a"/><path id="inner_1_" d="M262 202l15 9L185 266 94 211l15-9 77 46L262 202zM240 189l15 9L185 240 116 198l15-9 55 33L240 189zM94 185l15-9L123 185l-15 9L94 185zM247 185l15-9 15 9 -15 9L247 185zM137 185l48-29 48 29L185 214 137 185zM116 172l69-42 69 42 -15 9L185 148l-55 33L116 172zM94 159l91-55 91 55 -15 9L185 122l-76 46L94 159zM80 159l22 13 -22 13 22 13 -22 13L185 274 290 211l-22-13 22-13 -22-13 22-13L185 96 80 159z" class="a"/></svg>
