<svg xmlns="http://www.w3.org/2000/svg" width="370" height="370" viewBox="0 0 370 370"><style>.a{fill:#FFF;}</style><linearGradient gradientUnits="userSpaceOnUse" x1="-12.8" y1="372.5" x2="-11.7" y2="372.5" gradientTransform="matrix(0 -314.0533 -314.0533 0 117158.4688 -3661.584)"><stop offset="0" stop-color="#A160A4"/><stop offset="1" stop-color="#386CB2"/></linearGradient><rect width="370" height="370" fill="url(#background_2_)"/><path d="M38.4 185c0-80.9 65.8-146.6 146.6-146.6S331.6 104.1 331.6 185c0 80.9-65.8 146.6-146.6 146.6S38.4 265.9 38.4 185M28 185c0 86.6 70.4 157 157 157 86.6 0 157-70.4 157-157S271.6 28 185 28C98.4 28 28 98.4 28 185" class="a"/><path d="M261.5 202.3l14.6 8.7L185 265.6 93.9 211l14.6-8.7 76.5 45.9L261.5 202.3zM239.8 189.3l14.6 8.7L185 239.6 115.6 198l14.6-8.7 54.8 32.9L239.8 189.3zM93.9 185l14.6-8.7L123 185l-14.6 8.7L93.9 185zM247 185l14.6-8.7 14.6 8.7 -14.6 8.7L247 185zM137.3 185l47.7-28.6 47.7 28.6L185 213.6 137.3 185zM115.6 172l69.4-41.6 69.4 41.6 -14.6 8.7L185 147.8l-54.8 32.9L115.6 172zM93.9 159l91.1-54.6 91.1 54.6 -14.6 8.7L185 121.8l-76.5 45.9L93.9 159zM79.6 159l21.7 13 -21.7 13 21.7 13 -21.7 13L185 274.2 290.4 211l-21.7-13 21.7-13 -21.7-13 21.7-13L185 95.8 79.6 159z" class="a"/></svg>
